Patient4_TMGait_0pt8_01_right_41_GRF.mot
version=1
nRows=65
nColumns=19
inDegrees=no
endheader
time	F1x	F1y	F1z	M1x	M1y	M1z	F2x	F2y	F2z	M2x	M2y	M2z	EC1x	EC1y	EC1z	EC2x	EC2y	EC2z
46.01	-4.4862	725.9506	72.5374	-241.1122	-79.4284	794.6507	14.958	17.6899	-19.7011	9.2227	11.7823	19.6572	-0.0592	0.0182	-0.0073	-0.0462	0.0165	0.9585
46.0216	-3.6768	728.6909	73.1831	-241.2734	-79.091	794.1765	9.9179	12.9766	-13.6144	6.6934	8.254	14.5295	-0.0592	0.0182	-0.0073	-0.0462	0.0165	0.9585
46.0333	-2.8411	732.4622	73.8626	-241.5418	-78.7214	794.4379	5.7082	8.9986	-8.4178	4.546	5.2338	10.1793	-0.0592	0.0182	-0.0073	-0.0462	0.0165	0.9585
46.0449	-1.9541	736.9724	74.5043	-241.8668	-78.2806	795.2339	2.534	5.9846	-4.4267	2.9126	2.9128	6.8766	-0.0592	0.0182	-0.0073	-0.0462	0.0165	0.9585
46.0566	-0.97738	741.7019	75.0464	-242.1412	-77.7196	796.0854	0.35232	3.9183	-1.658	1.7898	1.3143	4.617	-0.0592	0.0182	-0.0073	-0.0462	0.0165	0.9585
46.0682	0.20725	745.9517	75.4209	-242.2091	-76.9491	796.2611	-0.9825	2.6804	0.062715	1.1084	0.33767	3.2759	-0.0592	0.0182	-0.0073	-0.0462	0.0165	0.9585
46.0799	1.7268	749.0158	75.5853	-241.902	-75.8975	795.0303	-1.688	2.0427	0.96171	0.75264	-0.14051	2.6036	-0.0592	0.0182	-0.0073	-0.0462	0.0165	0.9585
46.0915	3.7105	750.2963	75.5257	-241.0724	-74.5147	791.7512	-1.9557	1.7963	1.2796	0.60873	-0.25689	2.368	-0.0592	0.0182	-0.0073	-0.0462	0.0165	0.9585
46.1031	6.2553	749.4527	75.2484	-239.638	-72.7755	786.0723	-1.9535	1.703	1.2173	0.55896	-0.12747	2.299	-0.0592	0.0182	-0.0073	-0.0462	0.0165	0.9585
46.1148	9.4564	746.4911	74.8019	-237.6124	-70.6909	777.9999	-1.8092	1.5417	0.93944	0.49814	0.1424	2.1333	-0.0592	0.0182	-0.0073	-0.0462	0.0165	0.9585
46.1264	13.3465	741.7947	74.2484	-235.1156	-68.3061	767.9719	-1.6028	1.1248	0.56256	0.3373	0.46927	1.6325	-0.0592	0.0182	-0.0073	-0.0462	0.0165	0.9585
46.1381	17.9298	736.1435	73.7012	-232.3848	-65.7281	756.8269	-1.3898	0.27673	0.16519	-0.0018089	0.79792	0.57903	-0.0592	0.0182	-0.0073	-0.0462	0.0165	0.9585
46.1497	23.1348	730.6243	73.2867	-229.7464	-63.0957	745.7141	-1.1721	-1.1138	-0.18572	-0.57092	1.0668	-1.1764	-0.0592	0.0182	-0.0073	-0.0462	0.0165	0.9585
46.1614	28.8321	726.4386	73.1714	-227.5638	-60.5971	735.8687	-0.93164	-3.0746	-0.44227	-1.3801	1.2136	-3.6778	-0.0592	0.0182	-0.0073	-0.0462	0.0165	0.9585
46.173	34.8318	724.7031	73.4906	-226.1777	-58.4093	728.444	-0.61908	-5.5111	-0.53785	-2.3824	1.1387	-6.7991	-0.0592	0.0182	-0.0073	-0.0462	0.0165	0.9585
46.1846	40.8845	726.1332	74.3385	-225.811	-56.69	724.1732	-0.18189	-8.1149	-0.39524	-3.4414	0.7172	-10.1424	-0.0592	0.0182	-0.0073	-0.0462	0.0165	0.9585
46.1963	46.725	730.8893	75.7007	-226.5201	-55.5015	723.2308	0.43778	-10.2748	0.089866	-4.2948	-0.20319	-12.9339	-0.0592	0.0182	-0.0073	-0.0462	0.0165	0.9585
46.2079	52.1464	738.4487	77.47	-228.1515	-54.8065	725.13	1.27	-11.0065	1.0291	-4.5222	-1.7778	-13.9248	-0.0592	0.0182	-0.0073	-0.0462	0.0165	0.9585
46.2196	57.0128	747.7036	79.4614	-230.3698	-54.4767	728.8006	2.3296	-8.8351	2.5465	-3.5038	-4.1603	-11.2368	-0.0592	0.0182	-0.0073	-0.0462	0.0165	0.9585
46.2312	61.291	757.059	81.45	-232.6896	-54.3241	732.7093	3.5637	-1.8311	4.7089	-0.4307	-7.4069	-2.4	-0.0592	0.0182	-0.0073	-0.0462	0.0165	0.9585
46.2429	65.0408	764.6459	83.2083	-234.5397	-54.1375	735.0768	4.8211	12.3496	7.5027	5.6676	-11.4174	15.563	-0.0592	0.0182	-0.0073	-0.0462	0.0165	0.9585
46.2545	68.3592	768.4764	84.4905	-235.3136	-53.6799	734.0239	5.8198	36.1555	10.7236	15.7934	-15.7864	45.7645	-0.0592	0.0182	-0.0073	-0.0462	0.0165	0.9585
46.2661	71.3172	766.5443	85.0324	-234.4061	-52.7068	727.7045	6.0393	71.6168	13.899	30.7572	-19.6689	90.7906	-0.0592	0.0182	-0.0073	-0.0462	0.0165	0.9585
46.2778	73.9106	756.8444	84.5238	-231.2182	-50.9623	714.3143	4.6139	119.6167	16.2183	50.8577	-21.653	151.7519	-0.0592	0.0182	-0.0073	-0.0462	0.0165	0.9585
46.2894	75.968	737.4929	82.6462	-225.1881	-48.2374	692.1953	0.23415	178.7674	16.6158	75.4283	-19.8378	226.8754	-0.0592	0.0182	-0.0073	-0.0462	0.0165	0.9585
46.3011	77.1782	706.9549	79.103	-215.8547	-44.3892	660.0552	-7.9918	244.7441	13.7703	102.5677	-12.2578	310.6375	-0.0592	0.0182	-0.0073	-0.0462	0.0165	0.9585
46.3127	77.0761	664.3385	73.715	-202.9428	-39.4285	617.2205	-19.1761	311.0478	6.9254	129.5429	1.5164	394.6281	-0.0592	0.0182	-0.0073	-0.0462	0.0165	0.9585
46.3244	75.1703	609.7512	66.5356	-186.4664	-33.5819	563.9326	-31.28	372.186	-3.2611	154.1309	19.6983	471.5403	-0.0592	0.0182	-0.0073	-0.0462	0.0165	0.9585
46.336	71.0814	544.5525	57.9131	-166.8012	-27.2834	501.5773	-42.7062	426.5248	-15.2741	175.7171	39.6685	538.9963	-0.0592	0.0182	-0.0073	-0.0462	0.0165	0.9585
46.3476	64.6738	471.3148	48.452	-144.6784	-21.093	432.5804	-52.4972	475.1762	-27.5168	194.8594	59.0537	598.1847	-0.0592	0.0182	-0.0073	-0.0462	0.0165	0.9585
46.3593	56.1167	393.5367	38.8783	-121.1095	-15.5606	360.1258	-60.0747	520.1014	-38.727	212.4595	76.032	651.5542	-0.0592	0.0182	-0.0073	-0.0462	0.0165	0.9585
46.3709	45.8649	315.2997	29.8318	-97.3026	-11.066	287.8761	-65.0817	562.6099	-47.7442	229.1446	89.0819	700.7849	-0.0592	0.0182	-0.0073	-0.0462	0.0165	0.9585
46.3826	34.6714	240.879	21.7964	-74.5534	-7.7628	219.6025	-67.4437	602.7882	-54.1779	244.9885	97.6894	746.1096	-0.0592	0.0182	-0.0073	-0.0462	0.0165	0.9585
46.3942	23.5939	174.167	15.0676	-54.0669	-5.5504	158.6971	-67.337	639.8421	-58.0518	259.6568	102.0129	786.6991	-0.0592	0.0182	-0.0073	-0.0462	0.0165	0.9585
46.4059	13.7652	117.9445	9.7497	-36.7259	-4.1432	107.5285	-65.2053	672.5465	-60.0456	272.5847	103.0699	821.2978	-0.0592	0.0182	-0.0073	-0.0462	0.0165	0.9585
46.4175	6.0087	73.3864	5.7702	-22.9297	-3.2109	67.0443	-61.6252	699.7578	-60.9325	283.2318	102.0646	848.771	-0.0592	0.0182	-0.0073	-0.0462	0.0165	0.9585
46.4291	0.63052	40.2244	2.9456	-12.6289	-2.4996	36.9336	-57.2013	720.8657	-61.4902	291.2728	100.2049	868.652	-0.0592	0.0182	-0.0073	-0.0462	0.0165	0.9585
46.4408	-2.5095	17.2445	1.072	-5.4701	-1.8857	16.0673	-52.48	735.8015	-62.2668	296.6381	98.4003	881.0853	-0.0592	0.0182	-0.0073	-0.0462	0.0165	0.9585
46.4524	-3.8358	2.6953	-0.065576	-0.92748	-1.3251	2.8579	-47.9166	745.0433	-63.4424	299.5163	97.0871	886.8089	-0.0592	0.0182	-0.0073	-0.0462	0.0165	0.9585
46.4641	-3.9467	-5.3461	-0.64744	1.5875	-0.85692	-4.4339	-43.7738	749.4727	-64.8747	300.304	96.2401	886.9678	-0.0592	0.0182	-0.0073	-0.0462	0.0165	0.9585
46.4757	-3.4014	-8.7572	-0.8478	2.6576	-0.50882	-7.5181	-40.1761	750.2315	-66.1714	299.5294	95.4872	882.9695	-0.0592	0.0182	-0.0073	-0.0462	0.0165	0.9585
46.4874	-2.583	-9.2169	-0.81648	2.8074	-0.27516	-7.9277	-37.1025	748.4784	-67.0552	297.727	94.5103	876.186	-0.0592	0.0182	-0.0073	-0.0462	0.0165	0.9585
46.499	-1.7286	-8.0293	-0.66282	2.4438	-0.13727	-6.849	-34.5237	745.17	-67.3626	295.3423	93.1179	867.7176	-0.0592	0.0182	-0.0073	-0.0462	0.0165	0.9585
46.5106	-0.97147	-6.1382	-0.46211	1.8575	-0.069187	-5.153	-32.3544	740.9906	-67.2038	292.6919	91.3941	858.327	-0.0592	0.0182	-0.0073	-0.0462	0.0165	0.9585
46.5223	-0.37385	-4.1425	-0.25833	1.2342	-0.049369	-3.3758	-30.5453	736.4429	-66.6808	290.0118	89.4356	848.5642	-0.0592	0.0182	-0.0073	-0.0462	0.0165	0.9585
46.5339	0.063004	-2.3683	-0.086154	0.67722	-0.04779	-1.8072	-29.027	732.0017	-65.8909	287.5219	87.3298	838.9217	-0.0592	0.0182	-0.0073	-0.0462	0.0165	0.9585
46.5456	0.34277	-0.9653	0.049204	0.23591	-0.059966	-0.57027	-27.7101	728.2071	-64.8529	285.4574	85.0727	829.9484	-0.0592	0.0182	-0.0073	-0.0462	0.0165	0.9585
46.5572	0.49935	0.04764	0.14098	-0.082267	-0.068782	0.32815	-26.469	725.5187	-63.5936	284.0137	82.6461	822.0771	-0.0592	0.0182	-0.0073	-0.0462	0.0165	0.9585
46.5689	0.5733	0.71995	0.19353	-0.29146	-0.068604	0.94736	-25.1603	724.2799	-62.1447	283.3204	80.0295	815.6334	-0.0592	0.0182	-0.0073	-0.0462	0.0165	0.9585
46.5805	0.5841	1.1345	0.21287	-0.41905	-0.061234	1.3613	-23.6347	724.5651	-60.5897	283.393	77.2524	810.6505	-0.0592	0.0182	-0.0073	-0.0462	0.0165	0.9585
46.5921	0.56482	1.3854	0.20827	-0.49553	-0.05041	1.6594	-21.7835	726.2266	-59.0137	284.1506	74.3644	806.9381	-0.0592	0.0182	-0.0073	-0.0462	0.0165	0.9585
46.6038	0.52332	1.5354	0.19122	-0.54214	-0.046733	1.8855	-19.5132	728.9343	-57.4888	285.4424	71.405	804.1124	-0.0592	0.0182	-0.0073	-0.0462	0.0165	0.9585
46.6154	0.45339	1.6268	0.17069	-0.57359	-0.059613	2.0486	-16.7758	732.3358	-56.0382	287.1059	68.3749	801.7917	-0.0592	0.0182	-0.0073	-0.0462	0.0165	0.9585
46.6271	0.35416	1.6732	0.16363	-0.59235	-0.10407	2.1413	-13.5102	736.0783	-54.6782	288.9811	65.2611	799.5815	-0.0592	0.0182	-0.0073	-0.0462	0.0165	0.9585
46.6387	0.21005	1.6453	0.16718	-0.58635	-0.17881	2.1325	-9.6777	739.8901	-53.4461	290.9349	62.0705	797.1978	-0.0592	0.0182	-0.0073	-0.0462	0.0165	0.9585
46.6504	0.0092114	1.506	0.19276	-0.54091	-0.29542	1.9704	-5.2475	743.6108	-52.4155	292.8739	58.8541	794.4849	-0.0592	0.0182	-0.0073	-0.0462	0.0165	0.9585
46.662	-0.24102	1.1956	0.22542	-0.43497	-0.4367	1.5872	-0.26017	747.2014	-51.688	294.7475	55.7116	791.443	-0.0592	0.0182	-0.0073	-0.0462	0.0165	0.9585
46.6736	-0.54315	0.66003	0.2762	-0.24657	-0.6115	0.90789	5.2109	750.7067	-51.3726	296.5374	52.7655	788.17	-0.0592	0.0182	-0.0073	-0.0462	0.0165	0.9585
46.6853	-0.87741	-0.15441	0.32938	0.04474	-0.7956	-0.13831	10.9772	754.1502	-51.5676	298.2225	50.1679	784.7624	-0.0592	0.0182	-0.0073	-0.0462	0.0165	0.9585
46.6969	-1.1868	-1.2886	0.38435	0.45576	-0.96716	-1.6007	16.7835	757.474	-52.3142	299.755	48.0611	781.2598	-0.0592	0.0182	-0.0073	-0.0462	0.0165	0.9585
46.7086	-1.3978	-2.7444	0.42041	0.98621	-1.0735	-3.4812	22.2947	760.4546	-53.5898	301.0298	46.5576	777.5666	-0.0592	0.0182	-0.0073	-0.0462	0.0165	0.9585
46.7202	-1.3683	-4.4404	0.42107	1.6038	-1.0422	-5.674	27.1794	762.7215	-55.3152	301.8915	45.7153	773.4489	-0.0592	0.0182	-0.0073	-0.0462	0.0165	0.9585
46.7319	-0.91026	-6.1379	0.35078	2.2225	-0.76149	-7.8756	31.1214	763.8245	-57.3814	302.1601	45.5555	768.5974	-0.0592	0.0182	-0.0073	-0.0462	0.0165	0.9585
46.7435	0.20888	-7.4198	0.18199	2.6884	-0.10475	-9.563	33.9047	763.3682	-59.6537	301.691	46.0384	762.7325	-0.0592	0.0182	-0.0073	-0.0462	0.0165	0.9585
46.7551	2.2562	-7.6122	-0.12748	2.7533	1.0799	-9.878	35.4781	761.1655	-61.982	300.4301	47.0544	755.7434	-0.0592	0.0182	-0.0073	-0.0462	0.0165	0.9585
